<?xml version="1.0" encoding="utf-8"?>
<!-- Generator: Adobe Illustrator 16.0.0, SVG Export Plug-In . SVG Version: 6.00 Build 0)  -->
<!DOCTYPE svg PUBLIC "-//W3C//DTD SVG 1.1//EN" "http://www.w3.org/Graphics/SVG/1.1/DTD/svg11.dtd">
<svg version="1.1" id="Layer_1" xmlns="http://www.w3.org/2000/svg" xmlns:xlink="http://www.w3.org/1999/xlink" x="0px" y="0px"
	 width="700px" height="490px" viewBox="0 0 700 490" enable-background="new 0 0 700 490" xml:space="preserve">
<g>
	<rect fill="#FFE9E8" width="700" height="490"/>
	<g>
		<g>
			<g>
				<path fill="#303E5C" d="M362.4,454.9c0.3,0,0.7,0.3,0.7,0.3l-5.7,11.8c-0.6,0-2.1,0.1-2.5,0.1c-0.3,0-0.7-0.3-0.7-0.3l-1.9-11.8
					c1.2,0,2.7-0.1,3.1-0.1c0.3,0,0.7,0.3,0.7,0.3l0.6,5.8c0.1,0.5,0.1,1.2,0,1.9c0.2-0.8,0.4-1.5,0.6-2.1l2.4-5.8
					C360.7,455,362,454.9,362.4,454.9L362.4,454.9z"/>
			</g>
			<g>
				<path fill="#303E5C" d="M368.3,460.7c0,1.3-0.7,2.1-2.6,2.5l-1.9,0.4c0.2,0.8,0.7,1.2,1.5,1.2c1.1,0,1.8-0.8,1.8-0.8
					s0.5,0.3,0.5,0.9c0,1.1-1.7,2.2-3.7,2.2c-2,0-3.3-1.2-3.3-3.3c0-2.4,1.7-5.6,4.8-5.6C367.2,458.2,368.3,459.2,368.3,460.7
					L368.3,460.7z M365,461.9c0.4-0.1,0.5-0.5,0.5-0.8c0-0.4-0.1-0.9-0.5-0.9c-0.8,0-1.1,1.2-1.2,2.1L365,461.9z"/>
			</g>
			<g>
				<path fill="#303E5C" d="M373.5,458.2c1.6,0,2.7,0.8,2.7,1.9c0,1.3-1.6,1.8-1.6,1.8s-0.5-1.4-1.6-1.4c-0.7,0-1.2,0.7-1.2,2.3
					c0,1.4,0.4,2.1,1.3,2.1c1,0,1.6-0.6,1.6-0.6s0.5,0.3,0.5,0.9c0,1-1.6,2.1-3.5,2.1c-2,0-3.3-1.2-3.3-3.3
					C368.5,461.5,370.3,458.2,373.5,458.2L373.5,458.2z"/>
			</g>
			<g>
				<path fill="#303E5C" d="M381,456.3c0.4,0,0.6,0.3,0.6,0.3l-0.3,1.8h2l-0.4,1.4c-0.1,0.4-0.4,0.7-0.8,0.7h-1l-0.6,3.5
					c-0.1,0.6,0,0.8,0.4,0.8c0.4,0,0.7-0.2,0.7-0.2s0.5,0.3,0.5,0.9c0,0.9-1.3,1.7-2.9,1.7c-1.7,0-2.4-1-2.1-2.8l0.6-3.9h-1.1
					l0.5-1.4c0.1-0.4,0.4-0.6,0.8-0.6h0.5l0.6-1.7C379.9,456.6,380.6,456.3,381,456.3L381,456.3z"/>
			</g>
			<g>
				<path fill="#303E5C" d="M390.5,460.7c0,1.3-0.7,2.1-2.6,2.5l-1.9,0.4c0.2,0.8,0.7,1.2,1.5,1.2c1.1,0,1.8-0.8,1.8-0.8
					s0.5,0.3,0.5,0.9c0,1.1-1.7,2.2-3.7,2.2c-2,0-3.3-1.2-3.3-3.3c0-2.4,1.7-5.6,4.8-5.6C389.5,458.2,390.5,459.2,390.5,460.7
					L390.5,460.7z M387.3,461.9c0.4-0.1,0.5-0.5,0.5-0.8c0-0.4-0.1-0.9-0.5-0.9c-0.8,0-1.1,1.2-1.2,2.1L387.3,461.9z"/>
			</g>
			<g>
				<path fill="#303E5C" d="M398.4,460.7c0,1.3-0.7,2.1-2.6,2.5l-1.9,0.4c0.1,0.8,0.7,1.2,1.5,1.2c1.1,0,1.8-0.8,1.8-0.8
					s0.5,0.3,0.5,0.9c0,1.1-1.7,2.2-3.7,2.2c-2,0-3.3-1.2-3.3-3.3c0-2.4,1.7-5.6,4.8-5.6C397.3,458.2,398.4,459.2,398.4,460.7
					L398.4,460.7z M395.1,461.9c0.4-0.1,0.5-0.5,0.5-0.8c0-0.4-0.1-0.9-0.5-0.9c-0.8,0-1.1,1.2-1.2,2.1L395.1,461.9z"/>
			</g>
			<g>
				<path fill="#303E5C" d="M404.8,463.9c0,0,0.7,0.6,0.7,1.6c0,1.3-1.1,1.7-2.1,1.7c-1.3,0-2.2-0.6-3.1-0.9
					c-0.3,0.3-0.5,0.6-0.8,0.9c0,0-1.4,0-1.4-1c0-1.1,2-3.1,4.1-5.3c-0.2,0-0.5-0.1-0.7-0.1c-1.2,0-1.7,0.6-1.7,0.6
					s-0.6-0.7-0.6-1.6c0.1-1.2,1.3-1.6,2.2-1.6c1,0,1.8,0.4,2.5,0.7l0.6-0.7c0,0,1.4,0,1.4,1c0,1.1-1.9,3-3.9,5.2
					c0.4,0.1,0.8,0.2,1.2,0.2C404.3,464.6,404.8,463.9,404.8,463.9L404.8,463.9z"/>
			</g>
			<g>
				<path fill="#303E5C" d="M414,466.4c-0.5,3-2.6,4.5-5.3,4.5c-1.7,0-3-0.9-3-1.9c0-0.7,0.6-1,0.6-1s0.6,0.5,1.7,0.5
					c1.1,0,2.5-0.4,2.8-2l0.2-1.2c-0.7,1-1.7,1.8-2.9,1.8c-1.4,0-2-1.1-1.6-3.3l0.4-2.4c0.2-1.5,0.3-2.6,0.3-2.6
					c1-0.2,2.2-0.6,2.7-0.6c0.3,0,0.7,0.3,0.7,0.3l-0.5,3l-0.4,2.8c0,0.3,0,0.4,0.2,0.4c1.1,0,1.8-3.1,1.8-3.1
					c0.2-1.5,0.3-2.6,0.3-2.6c1-0.2,2.2-0.6,2.7-0.6c0.3,0,0.7,0.3,0.7,0.3l-0.5,3L414,466.4z"/>
			</g>
		</g>
		<g>
			<path fill="#303E5C" d="M283.2,458.7h3c0.7,0,1.2,0.1,1.6,0.2c0.5,0.1,0.9,0.4,1.2,0.7c0.3,0.4,0.6,0.8,0.8,1.3
				c0.2,0.5,0.3,1.1,0.3,1.9c0,0.7-0.1,1.2-0.3,1.7c-0.2,0.6-0.5,1.1-0.9,1.4c-0.3,0.3-0.7,0.5-1.2,0.6c-0.4,0.1-0.9,0.2-1.5,0.2
				h-3.1V458.7z M284.9,460.1v5.3h1.2c0.5,0,0.8,0,1-0.1c0.3-0.1,0.5-0.2,0.7-0.3c0.2-0.2,0.3-0.4,0.4-0.8c0.1-0.4,0.2-0.8,0.2-1.5
				s-0.1-1.1-0.2-1.4c-0.1-0.3-0.3-0.6-0.5-0.8c-0.2-0.2-0.5-0.3-0.8-0.4c-0.2-0.1-0.7-0.1-1.4-0.1H284.9z"/>
			<path fill="#303E5C" d="M294.7,464.9l1.6,0.3c-0.2,0.6-0.5,1-1,1.3c-0.4,0.3-1,0.4-1.6,0.4c-1,0-1.8-0.3-2.3-1
				c-0.4-0.5-0.6-1.2-0.6-2c0-1,0.3-1.7,0.8-2.3s1.2-0.8,2-0.8c0.9,0,1.6,0.3,2.1,0.9c0.5,0.6,0.8,1.4,0.7,2.6h-4
				c0,0.5,0.1,0.8,0.4,1.1c0.2,0.3,0.5,0.4,0.9,0.4c0.2,0,0.5-0.1,0.6-0.2C294.5,465.4,294.7,465.2,294.7,464.9z M294.8,463.3
				c0-0.4-0.1-0.8-0.4-1s-0.5-0.3-0.8-0.3c-0.3,0-0.6,0.1-0.9,0.4s-0.3,0.6-0.3,1H294.8z"/>
			<path fill="#303E5C" d="M296.9,465.1l1.6-0.2c0.1,0.3,0.2,0.5,0.4,0.7c0.2,0.2,0.5,0.2,0.9,0.2c0.4,0,0.7-0.1,0.9-0.2
				c0.1-0.1,0.2-0.2,0.2-0.4c0-0.1,0-0.2-0.1-0.3c-0.1-0.1-0.3-0.1-0.5-0.2c-1.3-0.3-2.1-0.5-2.4-0.7c-0.5-0.3-0.7-0.7-0.7-1.3
				c0-0.5,0.2-0.9,0.6-1.3c0.4-0.3,1-0.5,1.9-0.5c0.8,0,1.4,0.1,1.8,0.4c0.4,0.3,0.7,0.6,0.8,1.1l-1.5,0.3c-0.1-0.2-0.2-0.4-0.4-0.5
				c-0.2-0.1-0.4-0.2-0.8-0.2c-0.4,0-0.7,0.1-0.9,0.2c-0.1,0.1-0.2,0.2-0.2,0.3c0,0.1,0.1,0.2,0.2,0.3c0.1,0.1,0.6,0.2,1.5,0.4
				c0.8,0.2,1.4,0.4,1.8,0.7c0.3,0.3,0.5,0.7,0.5,1.1c0,0.5-0.2,1-0.7,1.4c-0.5,0.4-1.1,0.6-2,0.6c-0.8,0-1.5-0.2-1.9-0.5
				C297.4,466,297.1,465.6,296.9,465.1z"/>
			<path fill="#303E5C" d="M303.6,460.1v-1.4h1.6v1.4H303.6z M303.6,466.7v-5.8h1.6v5.8H303.6z"/>
			<path fill="#303E5C" d="M306.4,467.1l1.8,0.2c0,0.2,0.1,0.3,0.2,0.4c0.2,0.1,0.4,0.2,0.7,0.2c0.4,0,0.7-0.1,0.9-0.2
				c0.1-0.1,0.2-0.2,0.3-0.4c0-0.1,0.1-0.4,0.1-0.7v-0.8c-0.5,0.6-1.1,0.9-1.8,0.9c-0.8,0-1.4-0.3-1.9-1c-0.4-0.5-0.5-1.2-0.5-1.9
				c0-1,0.2-1.7,0.7-2.2c0.5-0.5,1.1-0.8,1.8-0.8c0.7,0,1.3,0.3,1.8,0.9v-0.8h1.5v5.2c0,0.7-0.1,1.2-0.2,1.5
				c-0.1,0.3-0.3,0.6-0.5,0.8c-0.2,0.2-0.5,0.3-0.8,0.5s-0.8,0.2-1.3,0.2c-1,0-1.7-0.2-2.2-0.5c-0.4-0.3-0.6-0.8-0.6-1.3
				C306.4,467.2,306.4,467.2,306.4,467.1z M307.9,463.7c0,0.6,0.1,1.1,0.4,1.4c0.2,0.3,0.5,0.4,0.9,0.4c0.4,0,0.7-0.1,1-0.4
				c0.3-0.3,0.4-0.7,0.4-1.3c0-0.6-0.1-1-0.4-1.3c-0.3-0.3-0.6-0.4-1-0.4c-0.4,0-0.7,0.1-0.9,0.4C308,462.7,307.9,463.1,307.9,463.7
				z"/>
			<path fill="#303E5C" d="M318.8,466.7h-1.6v-3c0-0.6,0-1-0.1-1.2c-0.1-0.2-0.2-0.3-0.3-0.4c-0.1-0.1-0.3-0.2-0.5-0.2
				c-0.3,0-0.5,0.1-0.7,0.2c-0.2,0.1-0.4,0.3-0.4,0.6c-0.1,0.2-0.1,0.7-0.1,1.3v2.6h-1.6v-5.8h1.5v0.9c0.5-0.7,1.2-1,2-1
				c0.3,0,0.7,0.1,1,0.2c0.3,0.1,0.5,0.3,0.7,0.5c0.1,0.2,0.3,0.4,0.3,0.6c0.1,0.2,0.1,0.6,0.1,1V466.7z"/>
			<path fill="#303E5C" d="M323.6,464.9l1.6,0.3c-0.2,0.6-0.5,1-1,1.3c-0.4,0.3-1,0.4-1.6,0.4c-1,0-1.8-0.3-2.3-1
				c-0.4-0.5-0.6-1.2-0.6-2c0-1,0.3-1.7,0.8-2.3c0.5-0.5,1.2-0.8,2-0.8c0.9,0,1.6,0.3,2.1,0.9c0.5,0.6,0.8,1.4,0.7,2.6h-4
				c0,0.5,0.1,0.8,0.4,1.1c0.2,0.3,0.5,0.4,0.9,0.4c0.2,0,0.5-0.1,0.6-0.2S323.5,465.2,323.6,464.9z M323.7,463.3
				c0-0.4-0.1-0.8-0.4-1c-0.2-0.2-0.5-0.3-0.8-0.3c-0.3,0-0.6,0.1-0.9,0.4s-0.3,0.6-0.3,1H323.7z"/>
			<path fill="#303E5C" d="M331.8,466.7h-1.5v-0.9c-0.2,0.3-0.5,0.6-0.9,0.7c-0.3,0.2-0.7,0.2-1,0.2c-0.7,0-1.3-0.3-1.8-0.8
				c-0.5-0.5-0.7-1.3-0.7-2.2c0-1,0.2-1.7,0.7-2.2c0.5-0.5,1.1-0.8,1.8-0.8c0.7,0,1.2,0.3,1.7,0.8v-2.9h1.6V466.7z M327.6,463.7
				c0,0.6,0.1,1.1,0.3,1.3c0.3,0.4,0.6,0.6,1.1,0.6c0.4,0,0.7-0.2,0.9-0.4c0.3-0.3,0.4-0.7,0.4-1.3c0-0.7-0.1-1.1-0.4-1.4
				c-0.2-0.3-0.6-0.4-0.9-0.4c-0.4,0-0.7,0.1-0.9,0.4C327.7,462.7,327.6,463.1,327.6,463.7z"/>
			<path fill="#303E5C" d="M336,466.7v-8h1.6v2.9c0.5-0.5,1.1-0.8,1.7-0.8c0.7,0,1.3,0.3,1.8,0.8c0.5,0.5,0.7,1.2,0.7,2.2
				c0,1-0.2,1.8-0.7,2.3c-0.5,0.5-1.1,0.8-1.8,0.8c-0.3,0-0.7-0.1-1-0.2c-0.3-0.2-0.6-0.4-0.9-0.7v0.9H336z M337.6,463.7
				c0,0.6,0.1,1,0.3,1.3c0.3,0.4,0.6,0.6,1.1,0.6c0.3,0,0.6-0.1,0.9-0.4s0.4-0.7,0.4-1.4c0-0.7-0.1-1.1-0.4-1.4
				c-0.2-0.3-0.6-0.4-0.9-0.4c-0.4,0-0.7,0.1-0.9,0.4S337.6,463.1,337.6,463.7z"/>
			<path fill="#303E5C" d="M348,460.4c-0.4,0-0.7,0.2-0.9,0.5h-0.5l-1.4,4.1l-1.4-4.1h-1.7l2.3,5.8c-0.1,0.3-0.2,0.6-0.4,0.8
				c-0.2,0.2-0.4,0.3-0.8,0.3c-0.2,0-0.4,0-0.7-0.1l0.1,1.2c0.3,0.1,0.6,0.1,0.9,0.1c0.3,0,0.6,0,0.8-0.1c0.2-0.1,0.4-0.1,0.6-0.3
				s0.3-0.3,0.4-0.4c0.1-0.2,0.3-0.4,0.4-0.8l0.4-1l1.5-4c0.1,0,0.2,0.1,0.3,0.1C349.4,462.6,349.4,460.4,348,460.4z"/>
		</g>
	</g>
	<g>
		<path fill="#2C4557" d="M543.7,181.4h-6.6v-6.6c0-0.8-0.7-1.5-1.5-1.5s-1.5,0.7-1.5,1.5v6.6h-6.6c-0.8,0-1.5,0.7-1.5,1.5
			s0.7,1.5,1.5,1.5h6.6v6.6c0,0.8,0.7,1.5,1.5,1.5s1.5-0.7,1.5-1.5v-6.6h6.6c0.8,0,1.5-0.7,1.5-1.5S544.6,181.4,543.7,181.4z"/>
		<path fill="#2C4557" d="M555.8,191.9H552v-3.8c0-0.8-0.7-1.5-1.5-1.5c-0.8,0-1.5,0.7-1.5,1.5v3.8h-3.8c-0.8,0-1.5,0.7-1.5,1.5
			s0.7,1.5,1.5,1.5h3.8v3.8c0,0.8,0.7,1.5,1.5,1.5c0.8,0,1.5-0.7,1.5-1.5v-3.8h3.8c0.8,0,1.5-0.7,1.5-1.5S556.6,191.9,555.8,191.9z"
			/>
		<path fill="#2C4557" d="M146.8,329.3h-6.6v-6.6c0-0.8-0.7-1.5-1.5-1.5s-1.5,0.7-1.5,1.5v6.6h-6.6c-0.8,0-1.5,0.7-1.5,1.5
			c0,0.8,0.7,1.5,1.5,1.5h6.6v6.6c0,0.8,0.7,1.5,1.5,1.5s1.5-0.7,1.5-1.5v-6.6h6.6c0.8,0,1.5-0.7,1.5-1.5
			C148.3,330,147.6,329.3,146.8,329.3z"/>
		<path fill="#2C4557" d="M158.8,339.8h-3.8V336c0-0.8-0.7-1.5-1.5-1.5c-0.8,0-1.5,0.7-1.5,1.5v3.8h-3.8c-0.8,0-1.5,0.7-1.5,1.5
			c0,0.8,0.7,1.5,1.5,1.5h3.8v3.8c0,0.8,0.7,1.5,1.5,1.5c0.8,0,1.5-0.7,1.5-1.5v-3.8h3.8c0.8,0,1.5-0.7,1.5-1.5
			C160.3,340.5,159.7,339.8,158.8,339.8z"/>
		<path fill="#2C4557" d="M290.2,415.8h-3.8v-3.8c0-0.8-0.7-1.5-1.5-1.5c-0.8,0-1.5,0.7-1.5,1.5v3.8h-3.8c-0.8,0-1.5,0.7-1.5,1.5
			c0,0.8,0.7,1.5,1.5,1.5h3.8v3.8c0,0.8,0.7,1.5,1.5,1.5c0.8,0,1.5-0.7,1.5-1.5v-3.8h3.8c0.8,0,1.5-0.7,1.5-1.5
			C291.7,416.5,291,415.8,290.2,415.8z"/>
		<path fill="#2C4557" d="M341.3,306.6h-3.8v-3.8c0-0.8-0.7-1.5-1.5-1.5c-0.8,0-1.5,0.7-1.5,1.5v3.8h-3.8c-0.8,0-1.5,0.7-1.5,1.5
			c0,0.8,0.7,1.5,1.5,1.5h3.8v3.8c0,0.8,0.7,1.5,1.5,1.5c0.8,0,1.5-0.7,1.5-1.5v-3.8h3.8c0.8,0,1.5-0.7,1.5-1.5
			C342.8,307.3,342.1,306.6,341.3,306.6z"/>
		<path fill="#2C4557" d="M347.1,43.3h-3.8v-3.8c0-0.8-0.7-1.5-1.5-1.5c-0.8,0-1.5,0.7-1.5,1.5v3.8h-3.8c-0.8,0-1.5,0.7-1.5,1.5
			c0,0.8,0.7,1.5,1.5,1.5h3.8V50c0,0.8,0.7,1.5,1.5,1.5c0.8,0,1.5-0.7,1.5-1.5v-3.8h3.8c0.8,0,1.5-0.7,1.5-1.5
			C348.6,44,347.9,43.3,347.1,43.3z"/>
		<path fill="#2C4557" d="M553.6,73.7h-3.8v-3.8c0-0.8-0.7-1.5-1.5-1.5c-0.8,0-1.5,0.7-1.5,1.5v3.8h-3.8c-0.8,0-1.5,0.7-1.5,1.5
			c0,0.8,0.7,1.5,1.5,1.5h3.8v3.8c0,0.8,0.7,1.5,1.5,1.5c0.8,0,1.5-0.7,1.5-1.5v-3.8h3.8c0.8,0,1.5-0.7,1.5-1.5
			C555.1,74.3,554.5,73.7,553.6,73.7z"/>
		<path fill="#2C4557" d="M580.5,346.6h-3.8v-3.8c0-0.8-0.7-1.5-1.5-1.5c-0.8,0-1.5,0.7-1.5,1.5v3.8H570c-0.8,0-1.5,0.7-1.5,1.5
			c0,0.8,0.7,1.5,1.5,1.5h3.8v3.8c0,0.8,0.7,1.5,1.5,1.5c0.8,0,1.5-0.7,1.5-1.5v-3.8h3.8c0.8,0,1.5-0.7,1.5-1.5
			C582,347.2,581.3,346.6,580.5,346.6z"/>
		<path fill="#2C4557" d="M105.5,88.1h-3.8v-3.8c0-0.8-0.7-1.5-1.5-1.5c-0.8,0-1.5,0.7-1.5,1.5v3.8H95c-0.8,0-1.5,0.7-1.5,1.5
			c0,0.8,0.7,1.5,1.5,1.5h3.8v3.8c0,0.8,0.7,1.5,1.5,1.5c0.8,0,1.5-0.7,1.5-1.5v-3.8h3.8c0.8,0,1.5-0.7,1.5-1.5
			C106.9,88.8,106.3,88.1,105.5,88.1z"/>
	</g>
</g>
<g>
	<g>
		<path fill="#F4928F" d="M333.1,224.3L198.8,388.5h275.4L333.1,224.3z M334.4,263.1l84.7,98.5H253.9L334.4,263.1z"/>
		<path fill="#2C4557" d="M476.4,389.5H196.7L333,222.7L476.4,389.5z M200.9,387.5H472L333.1,225.9L200.9,387.5z M421.3,362.7H251.8
			l82.6-101.1L421.3,362.7z M256,360.7h160.9l-82.5-96L256,360.7z"/>
	</g>
	<path fill="#303E5C" d="M207.6,385.9c0.4,0.4,0.5,1,0.1,1.4c-0.2,0.2-0.5,0.4-0.8,0.4c-0.2,0-0.4-0.1-0.6-0.2l-3.2-2.6
		c-0.4-0.4-0.5-1-0.1-1.4c0.3-0.4,1-0.5,1.4-0.1L207.6,385.9z M207.1,380c-0.4-0.3-1.1-0.3-1.4,0.1c-0.4,0.4-0.3,1.1,0.1,1.4l2.5,2
		c0.2,0.2,0.4,0.2,0.6,0.2c0.3,0,0.6-0.1,0.8-0.4c0.4-0.4,0.3-1.1-0.1-1.4L207.1,380z M209.4,377.1c-0.4-0.3-1.1-0.3-1.4,0.1
		c-0.4,0.4-0.3,1.1,0.1,1.4l2.5,2c0.2,0.2,0.4,0.2,0.6,0.2c0.3,0,0.6-0.1,0.8-0.4c0.4-0.4,0.3-1.1-0.1-1.4L209.4,377.1z M212,374.1
		c-0.4-0.3-1.1-0.3-1.4,0.1c-0.4,0.4-0.3,1.1,0.1,1.4l2.5,2c0.2,0.2,0.4,0.2,0.6,0.2c0.3,0,0.6-0.1,0.8-0.4c0.4-0.4,0.3-1.1-0.1-1.4
		L212,374.1z M214.5,371c-0.4-0.3-1.1-0.3-1.4,0.1c-0.4,0.4-0.3,1.1,0.1,1.4l2.5,2c0.2,0.2,0.4,0.2,0.6,0.2c0.3,0,0.6-0.1,0.8-0.4
		c0.4-0.4,0.3-1.1-0.1-1.4L214.5,371z M227,355.8c-0.4-0.3-1.1-0.3-1.4,0.1c-0.4,0.4-0.3,1.1,0.1,1.4l2.5,2c0.2,0.2,0.4,0.2,0.6,0.2
		c0.3,0,0.6-0.1,0.8-0.4c0.4-0.4,0.3-1.1-0.1-1.4L227,355.8z M224.7,358.6c-0.4-0.3-1.1-0.3-1.4,0.1c-0.4,0.4-0.3,1.1,0.1,1.4l2.5,2
		c0.2,0.2,0.4,0.2,0.6,0.2c0.3,0,0.6-0.1,0.8-0.4c0.4-0.4,0.3-1.1-0.1-1.4L224.7,358.6z M222.1,361.7c-0.4-0.3-1.1-0.3-1.4,0.1
		c-0.4,0.4-0.3,1.1,0.1,1.4l2.5,2c0.2,0.2,0.4,0.2,0.6,0.2c0.3,0,0.6-0.1,0.8-0.4c0.4-0.4,0.3-1.1-0.1-1.4L222.1,361.7z
		 M219.6,364.8c-0.4-0.3-1.1-0.3-1.4,0.1c-0.4,0.4-0.3,1.1,0.1,1.4l2.5,2c0.2,0.2,0.4,0.2,0.6,0.2c0.3,0,0.6-0.1,0.8-0.4
		c0.4-0.4,0.3-1.1-0.1-1.4L219.6,364.8z M217.1,367.9c-0.4-0.3-1.1-0.3-1.4,0.1s-0.3,1.1,0.1,1.4l4,3.3c0.2,0.2,0.4,0.2,0.6,0.2
		c0.3,0,0.6-0.1,0.8-0.4c0.4-0.4,0.3-1.1-0.1-1.4L217.1,367.9z M229.7,352.4c-0.4-0.3-1.1-0.3-1.4,0.1c-0.4,0.4-0.3,1.1,0.1,1.4
		l6.4,5.2c0.2,0.2,0.4,0.2,0.6,0.2c0.3,0,0.6-0.1,0.8-0.4c0.4-0.4,0.3-1.1-0.1-1.4L229.7,352.4z M233.7,352.6
		c0.2,0.2,0.4,0.2,0.6,0.2c0.3,0,0.6-0.1,0.8-0.4c0.4-0.4,0.3-1.1-0.1-1.4l-2.5-2c-0.4-0.3-1.1-0.3-1.4,0.1
		c-0.4,0.4-0.3,1.1,0.1,1.4L233.7,352.6z M234.8,346.2c-0.4-0.3-1.1-0.3-1.4,0.1c-0.4,0.4-0.3,1.1,0.1,1.4l2.5,2
		c0.2,0.2,0.4,0.2,0.6,0.2c0.3,0,0.6-0.1,0.8-0.4c0.4-0.4,0.3-1.1-0.1-1.4L234.8,346.2z M237.4,343.1c-0.4-0.3-1.1-0.3-1.4,0.1
		c-0.4,0.4-0.3,1.1,0.1,1.4l2.5,2c0.2,0.2,0.4,0.2,0.6,0.2c0.3,0,0.6-0.1,0.8-0.4c0.4-0.4,0.3-1.1-0.1-1.4L237.4,343.1z M239.9,340
		c-0.4-0.4-1.1-0.3-1.4,0.1c-0.4,0.4-0.3,1.1,0.1,1.4l2.5,2c0.2,0.2,0.4,0.2,0.6,0.2c0.3,0,0.6-0.1,0.8-0.4c0.4-0.4,0.3-1.1-0.1-1.4
		L239.9,340z M252.4,324.8c-0.4-0.3-1.1-0.3-1.4,0.1c-0.4,0.4-0.3,1.1,0.1,1.4l2.5,2c0.2,0.2,0.4,0.2,0.6,0.2c0.3,0,0.6-0.1,0.8-0.4
		c0.4-0.4,0.3-1.1-0.1-1.4L252.4,324.8z M250,327.7c-0.4-0.4-1.1-0.3-1.4,0.1c-0.4,0.4-0.3,1.1,0.1,1.4l2.5,2
		c0.2,0.2,0.4,0.2,0.6,0.2c0.3,0,0.6-0.1,0.8-0.4c0.4-0.4,0.3-1.1-0.1-1.4L250,327.7z M247.5,330.8c-0.4-0.3-1.1-0.3-1.4,0.1
		c-0.4,0.4-0.3,1.1,0.1,1.4l2.5,2c0.2,0.2,0.4,0.2,0.6,0.2c0.3,0,0.6-0.1,0.8-0.4c0.4-0.4,0.3-1.1-0.1-1.4L247.5,330.8z M245,333.8
		c-0.4-0.3-1.1-0.3-1.4,0.1c-0.4,0.4-0.3,1.1,0.1,1.4l2.5,2c0.2,0.2,0.4,0.2,0.6,0.2c0.3,0,0.6-0.1,0.8-0.4c0.4-0.4,0.3-1.1-0.1-1.4
		L245,333.8z M242.4,336.9c-0.4-0.3-1.1-0.3-1.4,0.1c-0.4,0.4-0.3,1.1,0.1,1.4l4,3.3c0.2,0.2,0.4,0.2,0.6,0.2c0.3,0,0.6-0.1,0.8-0.4
		c0.4-0.4,0.3-1.1-0.1-1.4L242.4,336.9z M255.1,321.5c-0.4-0.3-1.1-0.3-1.4,0.1c-0.4,0.4-0.3,1.1,0.1,1.4l6.4,5.2
		c0.2,0.2,0.4,0.2,0.6,0.2c0.3,0,0.6-0.1,0.8-0.4c0.4-0.4,0.3-1.1-0.1-1.4L255.1,321.5z M259.1,321.7c0.2,0.2,0.4,0.2,0.6,0.2
		c0.3,0,0.6-0.1,0.8-0.4c0.4-0.4,0.3-1.1-0.1-1.4l-2.5-2c-0.4-0.3-1.1-0.3-1.4,0.1c-0.4,0.4-0.3,1.1,0.1,1.4L259.1,321.7z
		 M260.2,315.3c-0.4-0.3-1.1-0.3-1.4,0.1c-0.4,0.4-0.3,1.1,0.1,1.4l2.5,2c0.2,0.2,0.4,0.2,0.6,0.2c0.3,0,0.6-0.1,0.8-0.4
		c0.4-0.4,0.3-1.1-0.1-1.4L260.2,315.3z M262.7,312.2c-0.4-0.3-1.1-0.3-1.4,0.1c-0.4,0.4-0.3,1.1,0.1,1.4l2.5,2
		c0.2,0.2,0.4,0.2,0.6,0.2c0.3,0,0.6-0.1,0.8-0.4c0.4-0.4,0.3-1.1-0.1-1.4L262.7,312.2z M265.3,309.1c-0.4-0.3-1.1-0.3-1.4,0.1
		c-0.4,0.4-0.3,1.1,0.1,1.4l2.5,2c0.2,0.2,0.4,0.2,0.6,0.2c0.3,0,0.6-0.1,0.8-0.4c0.4-0.4,0.3-1.1-0.1-1.4L265.3,309.1z
		 M277.7,293.9c-0.4-0.3-1.1-0.3-1.4,0.1c-0.4,0.4-0.3,1.1,0.1,1.4l2.5,2c0.2,0.2,0.4,0.2,0.6,0.2c0.3,0,0.6-0.1,0.8-0.4
		c0.4-0.4,0.3-1.1-0.1-1.4L277.7,293.9z M275.4,296.7c-0.4-0.3-1.1-0.3-1.4,0.1s-0.3,1.1,0.1,1.4l2.5,2c0.2,0.2,0.4,0.2,0.6,0.2
		c0.3,0,0.6-0.1,0.8-0.4c0.4-0.4,0.3-1.1-0.1-1.4L275.4,296.7z M272.9,299.8c-0.4-0.3-1.1-0.3-1.4,0.1c-0.4,0.4-0.3,1.1,0.1,1.4
		l2.5,2c0.2,0.2,0.4,0.2,0.6,0.2c0.3,0,0.6-0.1,0.8-0.4c0.4-0.4,0.3-1.1-0.1-1.4L272.9,299.8z M270.3,302.9
		c-0.4-0.3-1.1-0.3-1.4,0.1c-0.4,0.4-0.3,1.1,0.1,1.4l2.5,2c0.2,0.2,0.4,0.2,0.6,0.2c0.3,0,0.6-0.1,0.8-0.4c0.4-0.4,0.3-1.1-0.1-1.4
		L270.3,302.9z M267.8,306c-0.4-0.3-1.1-0.3-1.4,0.1c-0.4,0.4-0.3,1.1,0.1,1.4l4,3.3c0.2,0.2,0.4,0.2,0.6,0.2c0.3,0,0.6-0.1,0.8-0.4
		c0.4-0.4,0.3-1.1-0.1-1.4L267.8,306z M280.5,290.6c-0.4-0.3-1.1-0.3-1.4,0.1c-0.4,0.4-0.3,1.1,0.1,1.4l6.4,5.2
		c0.2,0.2,0.4,0.2,0.6,0.2c0.3,0,0.6-0.1,0.8-0.4c0.4-0.4,0.3-1.1-0.1-1.4L280.5,290.6z M284.4,290.8c0.2,0.2,0.4,0.2,0.6,0.2
		c0.3,0,0.6-0.1,0.8-0.4c0.4-0.4,0.3-1.1-0.1-1.4l-2.5-2c-0.4-0.3-1.1-0.3-1.4,0.1c-0.4,0.4-0.3,1.1,0.1,1.4L284.4,290.8z
		 M285.6,284.4c-0.4-0.3-1.1-0.3-1.4,0.1c-0.4,0.4-0.3,1.1,0.1,1.4l2.5,2c0.2,0.2,0.4,0.2,0.6,0.2c0.3,0,0.6-0.1,0.8-0.4
		c0.4-0.4,0.3-1.1-0.1-1.4L285.6,284.4z M288.1,281.3c-0.4-0.3-1.1-0.3-1.4,0.1c-0.4,0.4-0.3,1.1,0.1,1.4l2.5,2
		c0.2,0.2,0.4,0.2,0.6,0.2c0.3,0,0.6-0.1,0.8-0.4c0.4-0.4,0.3-1.1-0.1-1.4L288.1,281.3z M290.6,278.2c-0.4-0.3-1.1-0.3-1.4,0.1
		c-0.4,0.4-0.3,1.1,0.1,1.4l2.5,2c0.2,0.2,0.4,0.2,0.6,0.2c0.3,0,0.6-0.1,0.8-0.4c0.4-0.4,0.3-1.1-0.1-1.4L290.6,278.2z M303.1,263
		c-0.4-0.3-1.1-0.3-1.4,0.1c-0.4,0.4-0.3,1.1,0.1,1.4l2.5,2c0.2,0.2,0.4,0.2,0.6,0.2c0.3,0,0.6-0.1,0.8-0.4c0.4-0.4,0.3-1.1-0.1-1.4
		L303.1,263z M300.8,265.8c-0.4-0.3-1.1-0.3-1.4,0.1c-0.4,0.4-0.3,1.1,0.1,1.4l2.5,2c0.2,0.2,0.4,0.2,0.6,0.2c0.3,0,0.6-0.1,0.8-0.4
		c0.4-0.4,0.3-1.1-0.1-1.4L300.8,265.8z M298.2,268.9c-0.4-0.3-1.1-0.3-1.4,0.1c-0.4,0.4-0.3,1.1,0.1,1.4l2.5,2
		c0.2,0.2,0.4,0.2,0.6,0.2c0.3,0,0.6-0.1,0.8-0.4c0.4-0.4,0.3-1.1-0.1-1.4L298.2,268.9z M295.7,272c-0.4-0.3-1.1-0.3-1.4,0.1
		c-0.4,0.4-0.3,1.1,0.1,1.4l2.5,2c0.2,0.2,0.4,0.2,0.6,0.2c0.3,0,0.6-0.1,0.8-0.4c0.4-0.4,0.3-1.1-0.1-1.4L295.7,272z M293.2,275.1
		c-0.4-0.3-1.1-0.3-1.4,0.1c-0.4,0.4-0.3,1.1,0.1,1.4l4,3.3c0.2,0.2,0.4,0.2,0.6,0.2c0.3,0,0.6-0.1,0.8-0.4c0.4-0.4,0.3-1.1-0.1-1.4
		L293.2,275.1z M305.9,259.6c-0.4-0.3-1.1-0.3-1.4,0.1c-0.4,0.4-0.3,1.1,0.1,1.4l6.4,5.2c0.2,0.2,0.4,0.2,0.6,0.2
		c0.3,0,0.6-0.1,0.8-0.4c0.4-0.4,0.3-1.1-0.1-1.4L305.9,259.6z M309.8,259.9c0.2,0.2,0.4,0.2,0.6,0.2c0.3,0,0.6-0.1,0.8-0.4
		c0.4-0.4,0.3-1.1-0.1-1.4l-2.5-2c-0.4-0.3-1.1-0.3-1.4,0.1c-0.4,0.4-0.3,1.1,0.1,1.4L309.8,259.9z M310.9,253.4
		c-0.4-0.3-1.1-0.3-1.4,0.1c-0.4,0.4-0.3,1.1,0.1,1.4l2.5,2c0.2,0.2,0.4,0.2,0.6,0.2c0.3,0,0.6-0.1,0.8-0.4c0.4-0.4,0.3-1.1-0.1-1.4
		L310.9,253.4z M313.5,250.4c-0.4-0.4-1.1-0.3-1.4,0.1c-0.3,0.4-0.3,1.1,0.1,1.4l2.5,2c0.2,0.2,0.4,0.2,0.6,0.2
		c0.3,0,0.6-0.1,0.8-0.4c0.3-0.4,0.3-1.1-0.1-1.4L313.5,250.4z M316,247.3c-0.4-0.3-1.1-0.3-1.4,0.1c-0.4,0.4-0.3,1.1,0.1,1.4l2.5,2
		c0.2,0.2,0.4,0.2,0.6,0.2c0.3,0,0.6-0.1,0.8-0.4c0.4-0.4,0.3-1.1-0.1-1.4L316,247.3z M328.5,232.1c-0.4-0.3-1.1-0.3-1.4,0.1
		c-0.4,0.4-0.3,1.1,0.1,1.4l2.5,2c0.2,0.2,0.4,0.2,0.6,0.2c0.3,0,0.6-0.1,0.8-0.4c0.4-0.4,0.3-1.1-0.1-1.4L328.5,232.1z
		 M326.1,234.9c-0.4-0.3-1.1-0.3-1.4,0.1c-0.4,0.4-0.3,1.1,0.1,1.4l2.5,2c0.2,0.2,0.4,0.2,0.6,0.2c0.3,0,0.6-0.1,0.8-0.4
		c0.4-0.4,0.3-1.1-0.1-1.4L326.1,234.9z M323.6,238c-0.4-0.4-1.1-0.3-1.4,0.1c-0.4,0.4-0.3,1.1,0.1,1.4l2.5,2
		c0.2,0.2,0.4,0.2,0.6,0.2c0.3,0,0.6-0.1,0.8-0.4c0.4-0.4,0.3-1.1-0.1-1.4L323.6,238z M321.1,241.1c-0.4-0.3-1.1-0.3-1.4,0.1
		c-0.4,0.4-0.3,1.1,0.1,1.4l2.5,2c0.2,0.2,0.4,0.2,0.6,0.2c0.3,0,0.6-0.1,0.8-0.4c0.4-0.4,0.3-1.1-0.1-1.4L321.1,241.1z
		 M318.5,244.2c-0.4-0.4-1.1-0.3-1.4,0.1c-0.4,0.4-0.3,1.1,0.1,1.4l4,3.3c0.2,0.2,0.4,0.2,0.6,0.2c0.3,0,0.6-0.1,0.8-0.4
		c0.4-0.4,0.3-1.1-0.1-1.4L318.5,244.2z M337.6,233.9l-6.4-5.2c-0.4-0.4-1.1-0.3-1.4,0.1c-0.4,0.4-0.3,1.1,0.1,1.4l6.4,5.2
		c0.2,0.2,0.4,0.2,0.6,0.2c0.3,0,0.6-0.1,0.8-0.4C338.1,234.9,338,234.3,337.6,233.9z"/>
</g>
<g>
	<g>
		<path fill="#F2B776" d="M552.9,402.6c-3.4-115.2-176.3-115.2-179.7,0h-14.3v25.2h209.7v-25.2H552.9z M529.8,402.6H396.3
			C399.7,318.2,526.4,318.2,529.8,402.6z"/>
		<path fill="#2C4557" d="M569.5,428.7H357.8v-27.2h14.4c2.3-59.4,48.6-86.4,90.8-86.4c42.3,0,88.6,27.1,90.8,86.4h15.6V428.7z
			 M359.8,426.7h207.7v-23.2h-15.6l0-1c-1.8-58.7-47.3-85.4-88.9-85.4c-41.6,0-87.1,26.7-88.9,85.4l0,1h-14.3V426.7z M530.8,403.6
			H395.3l0-1c1.8-44.2,36.4-64.3,67.7-64.3s65.9,20.1,67.7,64.3L530.8,403.6z M397.3,401.6h131.4c-2.2-42.1-35.5-61.3-65.7-61.3
			S399.6,359.5,397.3,401.6z"/>
	</g>
	<path fill="#303E5C" d="M365.2,417.3v10.4c0,0.6-0.4,1-1,1s-1-0.4-1-1v-10.4c0-0.6,0.4-1,1-1S365.2,416.8,365.2,417.3z
		 M368.5,422.7c-0.6,0-1,0.4-1,1v4c0,0.6,0.4,1,1,1s1-0.4,1-1v-4C369.5,423.2,369.1,422.7,368.5,422.7z M372.2,422.7
		c-0.6,0-1,0.4-1,1v4c0,0.6,0.4,1,1,1s1-0.4,1-1v-4C373.2,423.2,372.7,422.7,372.2,422.7z M376.2,422.7c-0.6,0-1,0.4-1,1v4
		c0,0.6,0.4,1,1,1s1-0.4,1-1v-4C377.2,423.2,376.7,422.7,376.2,422.7z M380.2,422.7c-0.6,0-1,0.4-1,1v4c0,0.6,0.4,1,1,1s1-0.4,1-1
		v-4C381.2,423.2,380.7,422.7,380.2,422.7z M399.8,422.7c-0.6,0-1,0.4-1,1v4c0,0.6,0.4,1,1,1s1-0.4,1-1v-4
		C400.8,423.2,400.4,422.7,399.8,422.7z M396.2,422.7c-0.6,0-1,0.4-1,1v4c0,0.6,0.4,1,1,1s1-0.4,1-1v-4
		C397.2,423.2,396.7,422.7,396.2,422.7z M392.2,422.7c-0.6,0-1,0.4-1,1v4c0,0.6,0.4,1,1,1s1-0.4,1-1v-4
		C393.2,423.2,392.7,422.7,392.2,422.7z M388.2,422.7c-0.6,0-1,0.4-1,1v4c0,0.6,0.4,1,1,1s1-0.4,1-1v-4
		C389.2,423.2,388.7,422.7,388.2,422.7z M384.2,420.2c-0.6,0-1,0.4-1,1v6.6c0,0.6,0.4,1,1,1s1-0.4,1-1v-6.6
		C385.2,420.6,384.7,420.2,384.2,420.2z M404.2,416.3c-0.6,0-1,0.4-1,1v10.4c0,0.6,0.4,1,1,1s1-0.4,1-1v-10.4
		C405.2,416.8,404.7,416.3,404.2,416.3z M408.5,422.7c-0.6,0-1,0.4-1,1v4c0,0.6,0.4,1,1,1s1-0.4,1-1v-4
		C409.5,423.2,409.1,422.7,408.5,422.7z M412.2,422.7c-0.6,0-1,0.4-1,1v4c0,0.6,0.4,1,1,1s1-0.4,1-1v-4
		C413.2,423.2,412.7,422.7,412.2,422.7z M416.2,422.7c-0.6,0-1,0.4-1,1v4c0,0.6,0.4,1,1,1s1-0.4,1-1v-4
		C417.2,423.2,416.7,422.7,416.2,422.7z M420.2,422.7c-0.6,0-1,0.4-1,1v4c0,0.6,0.4,1,1,1s1-0.4,1-1v-4
		C421.2,423.2,420.7,422.7,420.2,422.7z M439.8,422.7c-0.6,0-1,0.4-1,1v4c0,0.6,0.4,1,1,1s1-0.4,1-1v-4
		C440.8,423.2,440.4,422.7,439.8,422.7z M436.2,422.7c-0.6,0-1,0.4-1,1v4c0,0.6,0.4,1,1,1s1-0.4,1-1v-4
		C437.2,423.2,436.7,422.7,436.2,422.7z M432.2,422.7c-0.6,0-1,0.4-1,1v4c0,0.6,0.4,1,1,1s1-0.4,1-1v-4
		C433.2,423.2,432.7,422.7,432.2,422.7z M428.2,422.7c-0.6,0-1,0.4-1,1v4c0,0.6,0.4,1,1,1s1-0.4,1-1v-4
		C429.2,423.2,428.7,422.7,428.2,422.7z M424.2,420.2c-0.6,0-1,0.4-1,1v6.6c0,0.6,0.4,1,1,1s1-0.4,1-1v-6.6
		C425.2,420.6,424.7,420.2,424.2,420.2z M444.2,416.3c-0.6,0-1,0.4-1,1v10.4c0,0.6,0.4,1,1,1s1-0.4,1-1v-10.4
		C445.2,416.8,444.7,416.3,444.2,416.3z M448.5,422.7c-0.6,0-1,0.4-1,1v4c0,0.6,0.4,1,1,1s1-0.4,1-1v-4
		C449.5,423.2,449.1,422.7,448.5,422.7z M452.2,422.7c-0.6,0-1,0.4-1,1v4c0,0.6,0.4,1,1,1s1-0.4,1-1v-4
		C453.2,423.2,452.7,422.7,452.2,422.7z M456.2,422.7c-0.6,0-1,0.4-1,1v4c0,0.6,0.4,1,1,1s1-0.4,1-1v-4
		C457.2,423.2,456.7,422.7,456.2,422.7z M460.2,422.7c-0.6,0-1,0.4-1,1v4c0,0.6,0.4,1,1,1s1-0.4,1-1v-4
		C461.2,423.2,460.7,422.7,460.2,422.7z M479.8,422.7c-0.6,0-1,0.4-1,1v4c0,0.6,0.4,1,1,1s1-0.4,1-1v-4
		C480.8,423.2,480.4,422.7,479.8,422.7z M476.2,422.7c-0.6,0-1,0.4-1,1v4c0,0.6,0.4,1,1,1s1-0.4,1-1v-4
		C477.2,423.2,476.7,422.7,476.2,422.7z M472.2,422.7c-0.6,0-1,0.4-1,1v4c0,0.6,0.4,1,1,1s1-0.4,1-1v-4
		C473.2,423.2,472.7,422.7,472.2,422.7z M468.2,422.7c-0.6,0-1,0.4-1,1v4c0,0.6,0.4,1,1,1s1-0.4,1-1v-4
		C469.2,423.2,468.7,422.7,468.2,422.7z M464.2,420.2c-0.6,0-1,0.4-1,1v6.6c0,0.6,0.4,1,1,1s1-0.4,1-1v-6.6
		C465.2,420.6,464.7,420.2,464.2,420.2z M484.2,416.3c-0.6,0-1,0.4-1,1v10.4c0,0.6,0.4,1,1,1s1-0.4,1-1v-10.4
		C485.2,416.8,484.7,416.3,484.2,416.3z M488.5,422.7c-0.6,0-1,0.4-1,1v4c0,0.6,0.4,1,1,1s1-0.4,1-1v-4
		C489.5,423.2,489.1,422.7,488.5,422.7z M492.2,422.7c-0.6,0-1,0.4-1,1v4c0,0.6,0.4,1,1,1s1-0.4,1-1v-4
		C493.2,423.2,492.7,422.7,492.2,422.7z M496.2,422.7c-0.6,0-1,0.4-1,1v4c0,0.6,0.4,1,1,1s1-0.4,1-1v-4
		C497.2,423.2,496.7,422.7,496.2,422.7z M500.2,422.7c-0.6,0-1,0.4-1,1v4c0,0.6,0.4,1,1,1s1-0.4,1-1v-4
		C501.2,423.2,500.7,422.7,500.2,422.7z M519.8,422.7c-0.6,0-1,0.4-1,1v4c0,0.6,0.4,1,1,1s1-0.4,1-1v-4
		C520.8,423.2,520.4,422.7,519.8,422.7z M516.2,422.7c-0.6,0-1,0.4-1,1v4c0,0.6,0.4,1,1,1s1-0.4,1-1v-4
		C517.2,423.2,516.7,422.7,516.2,422.7z M512.2,422.7c-0.6,0-1,0.4-1,1v4c0,0.6,0.4,1,1,1s1-0.4,1-1v-4
		C513.2,423.2,512.7,422.7,512.2,422.7z M508.2,422.7c-0.6,0-1,0.4-1,1v4c0,0.6,0.4,1,1,1s1-0.4,1-1v-4
		C509.2,423.2,508.7,422.7,508.2,422.7z M504.2,420.2c-0.6,0-1,0.4-1,1v6.6c0,0.6,0.4,1,1,1s1-0.4,1-1v-6.6
		C505.2,420.6,504.7,420.2,504.2,420.2z M524.2,416.3c-0.6,0-1,0.4-1,1v10.4c0,0.6,0.4,1,1,1s1-0.4,1-1v-10.4
		C525.2,416.8,524.7,416.3,524.2,416.3z M528.5,422.7c-0.6,0-1,0.4-1,1v4c0,0.6,0.4,1,1,1s1-0.4,1-1v-4
		C529.5,423.2,529.1,422.7,528.5,422.7z M532.2,422.7c-0.6,0-1,0.4-1,1v4c0,0.6,0.4,1,1,1s1-0.4,1-1v-4
		C533.2,423.2,532.7,422.7,532.2,422.7z M536.2,422.7c-0.6,0-1,0.4-1,1v4c0,0.6,0.4,1,1,1s1-0.4,1-1v-4
		C537.2,423.2,536.7,422.7,536.2,422.7z M540.2,422.7c-0.6,0-1,0.4-1,1v4c0,0.6,0.4,1,1,1s1-0.4,1-1v-4
		C541.2,423.2,540.7,422.7,540.2,422.7z M559.8,422.7c-0.6,0-1,0.4-1,1v4c0,0.6,0.4,1,1,1s1-0.4,1-1v-4
		C560.8,423.2,560.4,422.7,559.8,422.7z M556.2,422.7c-0.6,0-1,0.4-1,1v4c0,0.6,0.4,1,1,1s1-0.4,1-1v-4
		C557.2,423.2,556.7,422.7,556.2,422.7z M552.2,422.7c-0.6,0-1,0.4-1,1v4c0,0.6,0.4,1,1,1s1-0.4,1-1v-4
		C553.2,423.2,552.7,422.7,552.2,422.7z M548.2,422.7c-0.6,0-1,0.4-1,1v4c0,0.6,0.4,1,1,1s1-0.4,1-1v-4
		C549.2,423.2,548.7,422.7,548.2,422.7z M544.2,420.2c-0.6,0-1,0.4-1,1v6.6c0,0.6,0.4,1,1,1s1-0.4,1-1v-6.6
		C545.2,420.6,544.7,420.2,544.2,420.2z M564.2,416.3c-0.6,0-1,0.4-1,1v10.4c0,0.6,0.4,1,1,1s1-0.4,1-1v-10.4
		C565.2,416.8,564.7,416.3,564.2,416.3z M568.5,422.7c-0.6,0-1,0.4-1,1v4c0,0.6,0.4,1,1,1s1-0.4,1-1v-4
		C569.5,423.2,569.1,422.7,568.5,422.7z"/>
</g>
<g>
	<g>
		<rect x="460.2" y="49.2" fill="#94A3AA" width="2.5" height="16.3"/>
		<path fill="#2C4557" d="M463.6,66.5h-4.5V48.2h4.5V66.5z M461.2,64.5h0.5V50.2h-0.5V64.5z"/>
	</g>
	<g>
		<rect x="456.8" y="62.7" fill="#94A3AA" width="9.3" height="17"/>
		<path fill="#2C4557" d="M466.1,80.7h-9.3c-0.6,0-1-0.4-1-1v-17c0-0.6,0.4-1,1-1h9.3c0.6,0,1,0.4,1,1v17
			C467.1,80.3,466.6,80.7,466.1,80.7z M457.8,78.7h7.3v-15h-7.3V78.7z"/>
	</g>
	<g>
		<rect x="439" y="216.6" fill="#94A3AA" width="44.5" height="4"/>
		<path fill="#2C4557" d="M483.6,221.7H439c-0.6,0-1-0.4-1-1v-4c0-0.6,0.4-1,1-1h44.5c0.6,0,1,0.4,1,1v4
			C484.6,221.2,484.1,221.7,483.6,221.7z M440,219.7h42.5v-2H440V219.7z"/>
	</g>
	<g>
		<path fill="#94A3AA" d="M508.4,285.1l1.6,17l-7-15.5c0.6-1,1.4-1.6,2.4-1.9C506.3,284.3,507.4,284.5,508.4,285.1z"/>
		<path fill="#2C4557" d="M510,303c-0.4,0-0.7-0.2-0.9-0.6l-7-15.5c-0.1-0.3-0.1-0.7,0.1-1c0.8-1.2,1.8-2,3-2.3
			c1.2-0.3,2.5-0.1,3.8,0.5c0.3,0.2,0.5,0.5,0.5,0.8l1.6,16.8c0,0.1,0,0.2,0,0.3C511,302.6,510.6,303,510,303
			C510,303,510,303,510,303z M504.1,286.6l4.3,9.6l-1-10.4c-0.7-0.3-1.3-0.3-1.8-0.2C505.1,285.7,504.6,286.1,504.1,286.6z"/>
	</g>
	<g>
		<path fill="#94A3AA" d="M415.1,285.1l-1.6,17l7-15.5c-0.6-1-1.4-1.6-2.4-1.9C417.2,284.3,416.2,284.5,415.1,285.1z"/>
		<path fill="#2C4557" d="M413.5,303c-0.1,0-0.2,0-0.3,0c-0.5-0.1-0.8-0.6-0.7-1.1l1.6-17c0-0.3,0.2-0.6,0.5-0.8
			c1.3-0.7,2.6-0.8,3.8-0.5c1.2,0.3,2.2,1.1,3,2.3c0.2,0.3,0.2,0.6,0.1,1l-7,15.5C414.3,302.8,413.9,303,413.5,303z M416.1,285.7
			l-1,10.4l4.3-9.6c-0.4-0.6-1-0.9-1.5-1.1C417.4,285.4,416.7,285.5,416.1,285.7z"/>
	</g>
	<g>
		<path fill="#94A3AA" d="M468.5,100.5c-2.2,0.9-4.6,1.4-7.1,1.4s-4.9-0.5-7.1-1.4l-42.8,184.7h13.1l31.1-149h11.5l32.4,149h11.8
			L468.5,100.5z"/>
		<path fill="#2C4557" d="M512.6,286.2h-13.8l-0.2-0.8l-32.2-148.2h-9.9l-31.1,149h-15.1l43.4-187l1.1,0.5c4.2,1.8,9.1,1.8,13.4,0
			l1.1-0.5L512.6,286.2z M500.4,284.2h9.7l-42.3-182.3c-4.1,1.4-8.7,1.4-12.7,0l-42.3,182.3h11l31.1-149H468l0.2,0.8L500.4,284.2z"
			/>
	</g>
	<g>
		<path fill="#94A3AA" d="M461.4,76.1c-7.4,0-13.5,6-13.5,13.5c0,7.4,6,13.5,13.5,13.5s13.5-6,13.5-13.5
			C474.9,82.2,468.9,76.1,461.4,76.1z M461.4,99.1c-5.2,0-9.4-4.2-9.4-9.4c0-5.2,4.2-9.4,9.4-9.4s9.4,4.2,9.4,9.4
			C470.8,94.8,466.6,99.1,461.4,99.1z"/>
		<path fill="#2C4557" d="M461.4,104.1c-8,0-14.5-6.5-14.5-14.5c0-8,6.5-14.5,14.5-14.5s14.5,6.5,14.5,14.5
			C475.9,97.6,469.4,104.1,461.4,104.1z M461.4,77.1c-6.9,0-12.5,5.6-12.5,12.5c0,6.9,5.6,12.5,12.5,12.5s12.5-5.6,12.5-12.5
			C473.9,82.7,468.3,77.1,461.4,77.1z M461.4,100.1c-5.8,0-10.4-4.7-10.4-10.4c0-5.8,4.7-10.4,10.4-10.4s10.4,4.7,10.4,10.4
			C471.8,95.4,467.2,100.1,461.4,100.1z M461.4,81.2c-4.7,0-8.4,3.8-8.4,8.4c0,4.7,3.8,8.4,8.4,8.4s8.4-3.8,8.4-8.4
			C469.8,85,466.1,81.2,461.4,81.2z"/>
	</g>
	<g>
		
			<rect x="483.1" y="208.5" transform="matrix(0.9791 -0.2036 0.2036 0.9791 -34.054 104.3842)" fill="#94A3AA" width="14.3" height="18.3"/>
		<path fill="#2C4557" d="M485.1,229.1c-0.2,0-0.4-0.1-0.5-0.2c-0.2-0.1-0.4-0.4-0.4-0.6l-3.7-17.9c-0.1-0.5,0.2-1.1,0.8-1.2l14-2.9
			c0.3-0.1,0.5,0,0.8,0.1c0.2,0.1,0.4,0.4,0.4,0.6l3.7,17.9c0.1,0.5-0.2,1.1-0.8,1.2l-14,2.9C485.2,229.1,485.2,229.1,485.1,229.1z
			 M482.6,211l3.3,16l12.1-2.5l-3.3-16L482.6,211z"/>
	</g>
	<g>
		
			<rect x="425.5" y="208.5" transform="matrix(-0.9791 -0.2036 0.2036 -0.9791 811.8913 518.9034)" fill="#94A3AA" width="14.3" height="18.3"/>
		<path fill="#2C4557" d="M437.8,229.1c-0.1,0-0.1,0-0.2,0l-14-2.9c-0.5-0.1-0.9-0.6-0.8-1.2l3.7-17.9c0.1-0.3,0.2-0.5,0.4-0.6
			c0.2-0.1,0.5-0.2,0.8-0.1l14,2.9c0.5,0.1,0.9,0.6,0.8,1.2l-3.7,17.9c-0.1,0.3-0.2,0.5-0.4,0.6C438.2,229,438,229.1,437.8,229.1z
			 M424.9,224.4l12.1,2.5l3.3-16l-12.1-2.5L424.9,224.4z"/>
	</g>
</g>
<g>
	<g>
		<rect x="382.2" y="51.6" fill="#B3D9E4" width="12.2" height="200.3"/>
		<path fill="#2C4557" d="M394.4,252.9h-12.2c-0.6,0-1-0.4-1-1V51.6c0-0.6,0.4-1,1-1h12.2c0.6,0,1,0.4,1,1v200.3
			C395.4,252.5,394.9,252.9,394.4,252.9z M383.2,250.9h10.2V52.6h-10.2V250.9z"/>
	</g>
	<g>
		<path fill="#2C4557" d="M388.3,267.4c-0.4,0-0.8-0.2-0.9-0.6l-6.1-14.3c-0.1-0.3-0.1-0.7,0.1-0.9s0.5-0.4,0.8-0.4h12.2
			c0.3,0,0.6,0.2,0.8,0.4s0.2,0.6,0.1,0.9l-6.1,14.3C389,267.1,388.7,267.4,388.3,267.4z M383.7,253l4.6,10.8l4.6-10.8H383.7z"/>
	</g>
	<polygon fill="#2C4557" points="384.8,258.2 388.3,266.4 391.7,258.2 	"/>
	<g>
		<path fill="#B3D9E4" d="M388.3,45.8c-3.4,0-6.1,0.9-6.1,2.1v3.8h12.2v-3.8C394.4,46.7,391.6,45.8,388.3,45.8z"/>
		<path fill="#2C4557" d="M394.4,52.6h-12.2c-0.6,0-1-0.4-1-1v-3.8c0-2.1,3.6-3.1,7.1-3.1s7.1,1,7.1,3.1v3.8
			C395.4,52.2,394.9,52.6,394.4,52.6z M383.2,50.6h10.2v-2.8c-0.2-0.3-1.9-1.1-5.1-1.1s-4.9,0.8-5.1,1.2L383.2,50.6z"/>
	</g>
	<rect x="382.2" y="51.6" fill="#2C4557" width="12.2" height="4.2"/>
</g>
<g>
	<g>
		<path fill="#B3D9E4" d="M346,184.5c0,6.6-5.4,12-12,12h-15.2c-6.6,0-12-5.4-12-12V84.4c0-6.6,5.4-12,12-12H334c6.6,0,12,5.4,12,12
			V184.5z"/>
		<path fill="#2C4557" d="M334,197.5h-15.2c-7.2,0-13-5.8-13-13V84.4c0-7.2,5.8-13,13-13H334c7.2,0,13,5.8,13,13v100.1
			C347,191.7,341.2,197.5,334,197.5z M318.8,73.4c-6.1,0-11,4.9-11,11v100.1c0,6.1,4.9,11,11,11H334c6.1,0,11-4.9,11-11V84.4
			c0-6.1-4.9-11-11-11H318.8z"/>
	</g>
	<g>
		<path fill="#F4928F" d="M346,132.8V84.4c0-6.6-5.4-12-12-12h-15.2c-6.6,0-12,5.4-12,12v48.4H346z"/>
		<path fill="#2C4557" d="M346,133.8h-39.2c-0.6,0-1-0.4-1-1V84.4c0-7.2,5.8-13,13-13H334c7.2,0,13,5.8,13,13v48.4
			C347,133.4,346.6,133.8,346,133.8z M307.8,131.8H345V84.4c0-6.1-4.9-11-11-11h-15.2c-6.1,0-11,4.9-11,11V131.8z"/>
	</g>
	<rect x="306.8" y="130" fill="#2C4557" width="39.9" height="5.6"/>
</g>
<g>
	<g>
		<rect x="157.4" y="57.4" fill="#94A3AA" width="116.1" height="201.6"/>
		<path fill="#2C4557" d="M274.5,259.9H156.4V56.4h118.1V259.9z M158.4,257.9h114.1V58.4H158.4V257.9z"/>
	</g>
	<g>
		<rect x="144.7" y="66.5" fill="#F2B776" width="121.5" height="186.1"/>
		<path fill="#2C4557" d="M267.2,253.6H143.7V65.5h123.5V253.6z M145.7,251.6h119.5V67.5H145.7V251.6z"/>
	</g>
	<path fill="#2C4557" d="M241,175c0,0.6-0.4,1-1,1h-57.6v-50.8c-0.4-0.2-0.6-0.7-0.4-1.1c0.1-0.3,0.2-0.5,0.4-0.6v-9.3
		c0-0.6,0.4-1,1-1s1,0.4,1,1v9.5c0.2,0.1,0.4,0.1,0.6,0.2c0.5,0.2,0.8,0.7,0.7,1.2c-0.1,0.4-0.5,0.7-1,0.7c-0.1,0-0.2,0-0.3,0
		c0,0,0,0,0,0V174h46.5c-0.1-0.5-0.2-1-0.4-1.4c-0.1-0.5,0.2-1.1,0.7-1.2c0.5-0.1,1.1,0.2,1.2,0.7c0.2,0.6,0.3,1.2,0.5,1.8
		c0,0.1,0,0.1,0,0.2h7.1C240.5,174,241,174.4,241,175z M215.9,145.8c0.2,0.2,0.5,0.3,0.7,0.3c0.2,0,0.5-0.1,0.7-0.3
		c0.4-0.4,0.5-1,0.1-1.4c-0.4-0.5-0.8-0.9-1.3-1.4c-0.4-0.4-1-0.4-1.4,0c-0.4,0.4-0.4,1,0,1.4C215.1,144.9,215.5,145.3,215.9,145.8z
		 M208.1,138.3c0.2,0.2,0.4,0.2,0.6,0.2c0.3,0,0.6-0.1,0.8-0.4c0.3-0.4,0.3-1.1-0.1-1.4c-0.5-0.4-1-0.8-1.5-1.2
		c-0.4-0.3-1.1-0.3-1.4,0.2c-0.3,0.4-0.3,1.1,0.2,1.4C207.2,137.5,207.6,137.9,208.1,138.3z M212.2,141.9c0.2,0.2,0.4,0.3,0.7,0.3
		c0.3,0,0.5-0.1,0.7-0.3c0.4-0.4,0.4-1,0-1.4c-0.4-0.4-0.9-0.9-1.4-1.3c-0.4-0.4-1-0.3-1.4,0.1c-0.4,0.4-0.3,1,0.1,1.4
		C211.3,141.1,211.7,141.5,212.2,141.9z M202.3,134c0.5,0.3,1,0.7,1.5,1c0.2,0.1,0.4,0.2,0.6,0.2c0.3,0,0.6-0.2,0.8-0.4
		c0.3-0.5,0.2-1.1-0.3-1.4c-0.5-0.4-1-0.7-1.5-1c-0.5-0.3-1.1-0.2-1.4,0.3C201.7,133.1,201.8,133.7,202.3,134z M224.3,157.5
		c0.3,0.5,0.6,1.1,0.9,1.6c0.2,0.3,0.5,0.5,0.9,0.5c0.2,0,0.3,0,0.5-0.1c0.5-0.3,0.7-0.9,0.4-1.4c-0.3-0.5-0.6-1.1-0.9-1.6
		c-0.3-0.5-0.9-0.7-1.4-0.4C224.2,156.4,224,157,224.3,157.5z M228.8,167.4c0.2,0.6,0.4,1.1,0.6,1.7c0.1,0.4,0.5,0.7,0.9,0.7
		c0.1,0,0.2,0,0.3-0.1c0.5-0.2,0.8-0.7,0.6-1.3c-0.2-0.6-0.4-1.2-0.6-1.8c-0.2-0.5-0.8-0.8-1.3-0.6
		C228.9,166.3,228.6,166.9,228.8,167.4z M219.3,150c0.2,0.3,0.5,0.4,0.8,0.4c0.2,0,0.4-0.1,0.6-0.2c0.4-0.3,0.5-1,0.2-1.4
		c-0.4-0.5-0.8-1-1.1-1.5c-0.3-0.4-1-0.5-1.4-0.2c-0.4,0.3-0.5,1-0.2,1.4C218.6,149,219,149.5,219.3,150z M226.7,162.4
		c0.3,0.5,0.5,1.1,0.7,1.7c0.2,0.4,0.5,0.6,0.9,0.6c0.1,0,0.3,0,0.4-0.1c0.5-0.2,0.7-0.8,0.5-1.3c-0.2-0.6-0.5-1.1-0.8-1.7
		c-0.2-0.5-0.8-0.7-1.3-0.5C226.7,161.3,226.5,161.9,226.7,162.4z M222.4,154.4c0.2,0.3,0.5,0.5,0.8,0.5c0.2,0,0.4,0,0.5-0.2
		c0.5-0.3,0.6-0.9,0.3-1.4c-0.3-0.5-0.7-1-1-1.6c-0.3-0.5-0.9-0.6-1.4-0.3c-0.5,0.3-0.6,0.9-0.3,1.4
		C221.8,153.4,222.1,153.9,222.4,154.4z M197.7,131.3c0.5,0.3,1.1,0.6,1.6,0.9c0.2,0.1,0.3,0.1,0.5,0.1c0.3,0,0.7-0.2,0.9-0.5
		c0.3-0.5,0.1-1.1-0.4-1.4c-0.5-0.3-1.1-0.6-1.6-0.9c-0.5-0.3-1.1-0.1-1.4,0.4C197,130.4,197.2,131,197.7,131.3z M179.5,122.6
		c-0.6-0.1-1.2-0.2-1.8-0.3c-0.5-0.1-1.1,0.3-1.2,0.8c-0.1,0.5,0.3,1.1,0.8,1.2c0.6,0.1,1.2,0.2,1.8,0.3c0.1,0,0.1,0,0.2,0
		c0.5,0,0.9-0.3,1-0.8C180.4,123.2,180,122.7,179.5,122.6z M233.6,185.9C233.6,185.9,233.6,185.9,233.6,185.9c0.6,0,1-0.5,1-1.1
		c0-0.6-0.1-1.2-0.2-1.8c-0.1-0.5-0.6-0.9-1.1-0.9c-0.5,0.1-0.9,0.6-0.9,1.1c0.1,0.6,0.1,1.2,0.2,1.8
		C232.6,185.5,233.1,185.9,233.6,185.9z M192.8,128.9c0.5,0.2,1.1,0.5,1.6,0.7c0.1,0.1,0.3,0.1,0.4,0.1c0.4,0,0.7-0.2,0.9-0.6
		c0.2-0.5,0-1.1-0.5-1.3c-0.6-0.3-1.1-0.5-1.7-0.8c-0.5-0.2-1.1,0-1.3,0.5C192.1,128.1,192.3,128.7,192.8,128.9z M233.8,187.5
		c-0.6,0-1,0.5-1,1c0,0.6,0,1.2,0,1.8c0,0.6,0.4,1,1,1s1-0.4,1-1c0-0.6,0-1.2,0-1.9C234.8,188,234.3,187.5,233.8,187.5z
		 M233.1,180.4c0.5-0.1,0.9-0.6,0.8-1.1c-0.1-0.6-0.2-1.2-0.3-1.8c-0.1-0.5-0.6-0.9-1.2-0.8c-0.5,0.1-0.9,0.6-0.8,1.2
		c0.1,0.6,0.2,1.2,0.3,1.8c0.1,0.5,0.5,0.8,1,0.8C233,180.4,233,180.4,233.1,180.4z M174,121.7c-0.6-0.1-1.2-0.1-1.8-0.2
		c-0.6-0.1-1,0.4-1.1,0.9c-0.1,0.6,0.4,1,0.9,1.1c0.6,0.1,1.2,0.1,1.8,0.2c0,0,0.1,0,0.1,0c0.5,0,0.9-0.4,1-0.9
		C174.9,122.3,174.5,121.8,174,121.7z M187.8,126.9c0.6,0.2,1.1,0.4,1.7,0.6c0.1,0,0.2,0.1,0.4,0.1c0.4,0,0.8-0.2,0.9-0.6
		c0.2-0.5-0.1-1.1-0.6-1.3c-0.6-0.2-1.2-0.4-1.7-0.6c-0.5-0.2-1.1,0.1-1.3,0.6C187,126.2,187.3,126.7,187.8,126.9z M168.4,121.2
		c-0.6,0-1.2,0-1.9,0c-0.6,0-1,0.4-1,1s0.4,1,1,1c0.6,0,1.2,0,1.8,0c0,0,0,0,0,0c0.5,0,1-0.4,1-1C169.4,121.7,169,121.3,168.4,121.2
		z"/>
	<path fill="#2C4557" d="M250.3,111.5l-3.4-1.2c-0.5-0.2-0.8-0.8-0.6-1.3s0.8-0.8,1.3-0.6l0.1,0c0-0.5,0.3-0.9,0.8-1
		c0.5-0.1,1.1,0.3,1.2,0.8L250.3,111.5z M243.8,109.2c-0.1,0-0.2,0-0.3-0.1l-1.7-0.6c-0.5-0.2-0.8-0.8-0.6-1.3
		c0.2-0.5,0.8-0.8,1.3-0.6l1.7,0.6c0.5,0.2,0.8,0.8,0.6,1.3C244.6,108.9,244.2,109.2,243.8,109.2z M238.6,107.3
		c-0.1,0-0.2,0-0.3-0.1l-1.7-0.6c-0.5-0.2-0.8-0.8-0.6-1.3s0.8-0.8,1.3-0.6l1.7,0.6c0.5,0.2,0.8,0.8,0.6,1.3
		C239.4,107.1,239,107.3,238.6,107.3z M248,105.8c-0.5,0-0.9-0.3-1-0.8l-0.3-1.8c-0.1-0.5,0.3-1.1,0.8-1.2c0.5-0.1,1.1,0.3,1.2,0.8
		l0.3,1.8c0.1,0.5-0.3,1.1-0.8,1.2C248.2,105.8,248.1,105.8,248,105.8z M233.4,105.5c-0.1,0-0.2,0-0.3-0.1l-1.7-0.6
		c-0.5-0.2-0.8-0.8-0.6-1.3c0.2-0.5,0.8-0.8,1.3-0.6l1.7,0.6c0.5,0.2,0.8,0.8,0.6,1.3C234.2,105.2,233.9,105.5,233.4,105.5z
		 M228.3,103.6c-0.1,0-0.2,0-0.3-0.1l-1.7-0.6c-0.5-0.2-0.8-0.8-0.6-1.3c0.2-0.5,0.8-0.8,1.3-0.6l1.7,0.6c0.5,0.2,0.8,0.8,0.6,1.3
		C229.1,103.4,228.7,103.6,228.3,103.6z M225.3,101.4c-0.3,0-0.6-0.1-0.8-0.4c-0.4-0.4-0.3-1.1,0.1-1.4l1.4-1.2
		c0.4-0.4,1.1-0.3,1.4,0.1c0.4,0.4,0.3,1.1-0.1,1.4l-1.4,1.2C225.8,101.3,225.6,101.4,225.3,101.4z M247,100.4c-0.5,0-0.9-0.3-1-0.8
		l-0.3-1.8c-0.1-0.5,0.3-1.1,0.8-1.2c0.5-0.1,1.1,0.3,1.2,0.8l0.3,1.8c0.1,0.5-0.3,1.1-0.8,1.2C247.2,100.4,247.1,100.4,247,100.4z
		 M229.5,97.8c-0.3,0-0.6-0.1-0.8-0.4c-0.4-0.4-0.3-1.1,0.1-1.4l1.4-1.2c0.4-0.4,1.1-0.3,1.4,0.1c0.4,0.4,0.3,1.1-0.1,1.4l-1.4,1.2
		C230,97.8,229.7,97.8,229.5,97.8z M246,95c-0.5,0-0.9-0.3-1-0.8l-0.3-1.8c-0.1-0.5,0.3-1.1,0.8-1.2c0.5-0.1,1.1,0.3,1.2,0.8
		l0.3,1.8c0.1,0.5-0.3,1.1-0.8,1.2C246.2,95,246.1,95,246,95z M233.7,94.3c-0.3,0-0.6-0.1-0.8-0.4c-0.4-0.4-0.3-1.1,0.1-1.4l1.4-1.2
		c0.4-0.4,1.1-0.3,1.4,0.1c0.4,0.4,0.3,1.1-0.1,1.4l-1.4,1.2C234.1,94.2,233.9,94.3,233.7,94.3z M237.9,90.7c-0.3,0-0.6-0.1-0.8-0.4
		c-0.4-0.4-0.3-1.1,0.1-1.4l1.4-1.2c0.4-0.4,1.1-0.3,1.4,0.1c0.4,0.4,0.3,1.1-0.1,1.4l-1.4,1.2C238.3,90.6,238.1,90.7,237.9,90.7z
		 M245,89.6c-0.5,0-0.9-0.3-1-0.8l-0.3-1.8c-0.1-0.5,0.3-1.1,0.8-1.2c0.5-0.1,1.1,0.3,1.2,0.8l0.3,1.8c0.1,0.5-0.3,1.1-0.8,1.2
		C245.2,89.6,245.1,89.6,245,89.6z M242,87.1c-0.3,0-0.6-0.1-0.8-0.4c-0.4-0.4-0.3-1.1,0.1-1.4l1.4-1.2c0.4-0.4,1.1-0.3,1.4,0.1
		c0.4,0.4,0.3,1.1-0.1,1.4l-1.4,1.2C242.5,87.1,242.3,87.1,242,87.1z"/>
	<path fill="#2C4557" d="M208.4,227l-7,4.7c-0.2,0.1-0.4,0.2-0.6,0.2c-0.3,0-0.6-0.2-0.8-0.4c-0.3-0.5-0.2-1.1,0.3-1.4l3.2-2.2
		h-33.1v-36l-2.1,3.1c-0.2,0.3-0.5,0.4-0.8,0.4c-0.2,0-0.4-0.1-0.6-0.2c-0.5-0.3-0.6-0.9-0.3-1.4l4.7-7l4.9,7
		c0.3,0.5,0.2,1.1-0.2,1.4c-0.5,0.3-1.1,0.2-1.4-0.2l-2.3-3.2v11.6h0.9c0.6,0,1,0.4,1,1s-0.4,1-1,1h-0.9v18.9l16.5-18.9H188
		c-0.6,0-1-0.4-1-1s0.4-1,1-1h1.8c0.5,0,1,0.4,1,1c0.1,0,0.1,0.1,0.2,0.1c0.4,0.4,0.5,1,0.1,1.4l-0.6,0.7c0.5,0.1,0.8,0.5,0.8,1v1.8
		c0,0.6-0.4,1-1,1s-1-0.4-1-1v-1.5l-15.7,18.1h15.8c0,0,0-0.1,0-0.1v-1.8c0-0.6,0.4-1,1-1s1,0.4,1,1v1.8c0,0,0,0.1,0,0.1h12
		l-3.1-2.2c-0.5-0.3-0.6-0.9-0.2-1.4c0.3-0.5,0.9-0.6,1.4-0.2L208.4,227z M182.5,205.3h1.8c0.6,0,1-0.4,1-1s-0.4-1-1-1h-1.8
		c-0.6,0-1,0.4-1,1S181.9,205.3,182.5,205.3z M176,204.3c0,0.6,0.4,1,1,1h1.8c0.6,0,1-0.4,1-1s-0.4-1-1-1H177
		C176.4,203.3,176,203.7,176,204.3z M191.3,212.9c0-0.6-0.4-1-1-1s-1,0.4-1,1v1.8c0,0.6,0.4,1,1,1s1-0.4,1-1V212.9z M190.3,217.4
		c-0.6,0-1,0.4-1,1v1.8c0,0.6,0.4,1,1,1s1-0.4,1-1v-1.8C191.3,217.8,190.9,217.4,190.3,217.4z"/>
</g>
</svg>
